<svg id="Layer_1" data-name="Layer 1" xmlns="http://www.w3.org/2000/svg" viewBox="0 0 730 158"><defs><style>.cls-1{fill:#1a2631;}.cls-2{fill:none;stroke:#1a2631;stroke-linecap:round;stroke-linejoin:round;stroke-width:2.5px;}</style></defs><title>Logo dark</title><rect class="cls-1" x="61.48" y="60.59" width="35.48" height="35.48" transform="translate(158.44 156.65) rotate(180)"/><rect class="cls-1" x="20" y="60.59" width="35.48" height="35.48" transform="translate(75.48 156.65) rotate(180)"/><rect class="cls-1" x="61.48" y="20.21" width="35.48" height="35.48" transform="translate(158.44 75.9) rotate(180)"/><polygon class="cls-2" points="147.03 46.41 127.51 36.76 137.57 2 156.21 16.93 147.03 46.41"/><polygon class="cls-2" points="147.03 46.41 127.51 36.76 100.63 31.97 122.53 41.65 147.03 46.41"/><polygon class="cls-2" points="100.63 31.97 127.51 36.76 137.57 2 109.96 2.56 100.63 31.97"/><rect class="cls-1" x="20" y="20.21" width="35.48" height="35.48" transform="translate(75.48 75.9) rotate(180)"/><rect class="cls-1" x="102.74" y="60.59" width="35.48" height="35.48" transform="translate(240.95 156.65) rotate(180)"/><rect class="cls-1" x="61.48" y="102.04" width="35.48" height="35.48" transform="translate(158.44 239.55) rotate(180)"/><rect class="cls-1" x="20" y="102.04" width="35.48" height="35.48" transform="translate(75.48 239.55) rotate(180)"/><rect class="cls-1" x="102.74" y="102.04" width="35.48" height="35.48" transform="translate(240.95 239.55) rotate(180)"/><path class="cls-1" d="M179.19,93a27.74,27.74,0,0,0,12.06,3c5,0,7.63-2.07,7.63-5.21,0-3-2.28-4.71-8.06-6.78-8-2.78-13.2-7.2-13.2-14.19,0-8.2,6.85-14.48,18.19-14.48a29.53,29.53,0,0,1,12.27,2.42l-2.42,8.78a22.84,22.84,0,0,0-10.06-2.28c-4.71,0-7,2.13-7,4.63,0,3.07,2.71,4.42,8.91,6.78C206,78.76,210,83.18,210,90c0,8.06-6.21,14.91-19.4,14.91-5.5,0-10.92-1.43-13.63-2.93Z"/><path class="cls-1" d="M243.67,103.3a26.53,26.53,0,0,1-9.7,1.57C222.7,104.87,215.5,98,215.5,87c0-10.2,7-18.54,20-18.54a25.13,25.13,0,0,1,8.28,1.35L242,77.9A14.83,14.83,0,0,0,236,76.83c-5.71,0-9.42,4.07-9.34,9.77,0,6.42,4.28,9.78,9.55,9.78a16.78,16.78,0,0,0,6.21-1.07Z"/><path class="cls-1" d="M249.66,80.75c0-5.13-.14-8.48-.28-11.48h9.34l.36,6.42h.29a10.23,10.23,0,0,1,9.41-7.2,11.33,11.33,0,0,1,2.28.14v10.2a15.64,15.64,0,0,0-2.92-.29c-4,0-6.71,2.14-7.42,5.5a13,13,0,0,0-.21,2.42v17.69H249.66Z"/><path class="cls-1" d="M286.18,69.27l5.21,17.12c.57,2.07,1.28,4.64,1.71,6.49h.22c.5-1.85,1.07-4.49,1.57-6.49l4.28-17.12h11.62l-8.13,23c-5,13.84-8.34,19.4-12.27,22.9a20,20,0,0,1-10.48,4.78l-2.29-9.2a13.76,13.76,0,0,0,4.71-1.86,12.54,12.54,0,0,0,4.5-4.35,2.88,2.88,0,0,0,.57-1.57,3.88,3.88,0,0,0-.5-1.78L274.13,69.27Z"/><path class="cls-1" d="M358.73,83.82H341V95.24H360.8v8.91H330.12V56.07H359.8V65H341V75h17.69Z"/><path class="cls-1" d="M367.86,80.4c0-4.35-.15-8.06-.29-11.13H377l.5,4.78h.21a12.77,12.77,0,0,1,10.77-5.56c7.13,0,12.49,4.7,12.49,15v20.68H390.11V84.82c0-4.49-1.57-7.56-5.49-7.56a5.78,5.78,0,0,0-5.49,4.07A7.33,7.33,0,0,0,378.7,84v20.11H367.86Z"/><path class="cls-1" d="M443,69.27c-.14,2.21-.29,5.14-.29,10.34V99.09c0,6.7-1.35,12.2-5.28,15.69-3.85,3.28-9.06,4.28-14.19,4.28-4.57,0-9.42-.93-12.56-2.71l2.14-8.2a21.51,21.51,0,0,0,10.13,2.64c5.14,0,9.06-2.79,9.06-9.21V99.3h-.14a11.15,11.15,0,0,1-9.42,4.57c-8.63,0-14.76-7-14.76-17.05,0-11.2,7.27-18.33,15.83-18.33,4.78,0,7.78,2.06,9.56,4.92h.14l.36-4.14Zm-11.13,14.2a8.17,8.17,0,0,0-.22-2c-.78-2.86-2.85-4.78-5.84-4.78-3.93,0-7.14,3.57-7.14,9.91,0,5.21,2.57,9.28,7.14,9.28a5.89,5.89,0,0,0,5.7-4.42,9.13,9.13,0,0,0,.36-2.86Z"/><path class="cls-1" d="M462.58,59.57c0,3-2.28,5.42-5.85,5.42a5.3,5.3,0,0,1-5.63-5.42c-.07-3.14,2.21-5.49,5.7-5.49A5.43,5.43,0,0,1,462.58,59.57Zm-11.2,44.58V69.27h10.84v34.88Z"/><path class="cls-1" d="M470.92,80.4c0-4.35-.14-8.06-.28-11.13h9.42l.49,4.78h.22a12.77,12.77,0,0,1,10.77-5.56c7.13,0,12.48,4.7,12.48,15v20.68H493.18V84.82c0-4.49-1.57-7.56-5.49-7.56a5.78,5.78,0,0,0-5.49,4.07,7.33,7.33,0,0,0-.43,2.71v20.11H470.92Z"/><path class="cls-1" d="M521.07,90.17c.36,4.5,4.78,6.63,9.85,6.63a30.61,30.61,0,0,0,9.62-1.42l1.43,7.35a34.54,34.54,0,0,1-12.62,2.14c-11.85,0-18.62-6.85-18.62-17.77,0-8.84,5.49-18.61,17.62-18.61,11.27,0,15.55,8.77,15.55,17.4a25.86,25.86,0,0,1-.36,4.28Zm12.77-7.42c0-2.64-1.14-7.06-6.13-7.06-4.57,0-6.43,4.14-6.71,7.06Z"/><path class="cls-1" d="M558.73,90.17c.36,4.5,4.78,6.63,9.85,6.63a30.67,30.67,0,0,0,9.63-1.42l1.42,7.35A34.51,34.51,0,0,1,567,104.87c-11.84,0-18.62-6.85-18.62-17.77,0-8.84,5.49-18.61,17.62-18.61,11.27,0,15.55,8.77,15.55,17.4a24.79,24.79,0,0,1-.36,4.28Zm12.77-7.42c0-2.64-1.14-7.06-6.13-7.06-4.57,0-6.42,4.14-6.71,7.06Z"/><path class="cls-1" d="M588.05,80.75c0-5.13-.14-8.48-.29-11.48h9.35l.35,6.42h.29a10.23,10.23,0,0,1,9.42-7.2,11.38,11.38,0,0,1,2.28.14v10.2a15.76,15.76,0,0,0-2.93-.29c-4,0-6.7,2.14-7.41,5.5a12.16,12.16,0,0,0-.22,2.42v17.69H588.05Z"/><path class="cls-1" d="M626.35,59.57c0,3-2.28,5.42-5.85,5.42a5.3,5.3,0,0,1-5.63-5.42c-.07-3.14,2.21-5.49,5.7-5.49A5.43,5.43,0,0,1,626.35,59.57Zm-11.2,44.58V69.27H626v34.88Z"/><path class="cls-1" d="M634.7,80.4c0-4.35-.15-8.06-.29-11.13h9.42l.5,4.78h.21a12.79,12.79,0,0,1,10.77-5.56c7.14,0,12.49,4.7,12.49,15v20.68H657V84.82c0-4.49-1.57-7.56-5.49-7.56A5.78,5.78,0,0,0,646,81.33a7.33,7.33,0,0,0-.43,2.71v20.11H634.7Z"/><path class="cls-1" d="M709.81,69.27c-.14,2.21-.29,5.14-.29,10.34V99.09c0,6.7-1.35,12.2-5.27,15.69-3.86,3.28-9.06,4.28-14.2,4.28-4.57,0-9.42-.93-12.55-2.71l2.13-8.2a21.55,21.55,0,0,0,10.13,2.64c5.14,0,9.06-2.79,9.06-9.21V99.3h-.14a11.15,11.15,0,0,1-9.42,4.57c-8.63,0-14.76-7-14.76-17.05,0-11.2,7.27-18.33,15.83-18.33,4.78,0,7.78,2.06,9.56,4.92H700l.35-4.14Zm-11.13,14.2a8.71,8.71,0,0,0-.21-2c-.79-2.86-2.86-4.78-5.85-4.78-3.93,0-7.14,3.57-7.14,9.91,0,5.21,2.57,9.28,7.14,9.28a5.89,5.89,0,0,0,5.7-4.42,9.13,9.13,0,0,0,.36-2.86Z"/></svg>